<svg xmlns="http://www.w3.org/2000/svg" width="26" height="26" fill="#4951f5" viewBox="0 0 26 400"><path d="M146 0h-266a67 67 0 0 0-67 67v266a67 67 0 0 0 67 67h266a67 67 0 0 0 67-67V67a67 67 0 0 0-67-67zm29 325a37 37 0 0 1-37 37h-250a37 37 0 0 1-37-37V162h324zm0-201h-324V75a37 37 0 0 1 37-37h250a37 37 0 0 1 37 37z"/><rect width="38.1" height="38.1" x="-119" y="63" rx="2.4" ry="2.4"/><rect width="38.1" height="38.1" x="-60.999" y="63" rx="2.4" ry="2.4"/><rect width="38.1" height="38.1" x="-2.999" y="63" rx="2.4" ry="2.4"/><rect width="114.3" height="38.1" x="13.001" y="295" rx="3.3" ry="3.3"/><path d="M-78 331a3 3 0 0 0 5 0l61-68a3 3 0 0 0 1-4l-59-69a3 3 0 0 0-4-1l-20 17a3 3 0 0 0-1 5l40 47a3 3 0 0 1 0 4l-43 47a3 3 0 0 0 1 4z"/></svg>