<svg xmlns="http://www.w3.org/2000/svg" id="svg6182" width="303.05" height="303.05" version="1.1"><defs id="defs6157"><linearGradient id="linear-gradient" x1="305.96" x2="144.8" y1="-20.02" y2="151.47" gradientUnits="userSpaceOnUse"><stop id="stop6142" offset="0" stop-color="#f869d5"/><stop id="stop6144" offset="1" stop-color="#a472ff"/></linearGradient><linearGradient id="linear-gradient-2" x1="207.38" x2="66.89" y1="-14.11" y2="124.33" gradientUnits="userSpaceOnUse"><stop id="stop6147" offset="0" stop-color="#ff7676"/><stop id="stop6149" offset="1" stop-color="#f966be"/></linearGradient><linearGradient id="linear-gradient-3" x1="333.36" x2="177.62" y1="63.87" y2="225.84" gradientUnits="userSpaceOnUse"><stop id="stop6152" offset="0" stop-color="#4affb1"/><stop id="stop6154" offset="1" stop-color="#2bd2ff"/></linearGradient><style id="style6140"/></defs><g id="Icon" transform="translate(0 6.395)"><g id="Icon-2" data-name="Icon"><path id="polygon6174" fill="url(#linear-gradient)" d="M278.16 35.22L303 60.06 172.88 190.19l-42.87-42.86L24.85 252.5.46 228.12 130.05 98.53l42.41 42.4z"/><path id="path6176" fill="url(#linear-gradient-2)" d="M117.5 5.39L0 121.21l26.5 26.89L128.3 47.82 170.83 91l26.87-26.52-58.08-58.93a15.65 15.65 0 00-22.12-.16z" transform="translate(0 -.89)"/><path id="path6178" fill="url(#linear-gradient-3)" d="M303.05 169.28l-26.83-26.83L174.65 244l-43.06-43.05-26.82 26.81 58.79 58.79a15.72 15.72 0 0022.22 0z" transform="translate(0 -.89)"/></g></g></svg>