<svg xmlns="http://www.w3.org/2000/svg" id="logo-ps" width="34" height="34" version="1.1"><defs id="defs36779"><linearGradient id="linear-gradient" x1="17" x2="17" y1="34" gradientUnits="userSpaceOnUse"><stop id="stop36761" offset="0" stop-color="#259a16"/><stop id="stop36763" offset=".234" stop-color="#5ecc56"/><stop id="stop36765" offset=".279" stop-color="#46a83f"/><stop id="stop36767" offset=".478" stop-color="#46a83f"/><stop id="stop36769" offset=".873" stop-color="#53bb4c"/><stop id="stop36771" offset="1" stop-color="#78ec6f"/></linearGradient><linearGradient id="linear-gradient-2" x1="17" x2="17" y1="16" y2="8" gradientUnits="userSpaceOnUse"><stop id="stop36774" offset="0" stop-color="#282a33"/><stop id="stop36776" offset="1" stop-color="#4f5254"/></linearGradient><style id="style36759"/></defs><path id="path36783" fill="url(#linear-gradient)" fill-rule="evenodd" d="M4 0h26a4 4 0 014 4v16a4 4 0 01-4 4H4a4 4 0 01-4-4V4a4 4 0 014-4zm0 26h26a4 4 0 010 8H4a4 4 0 010-8z"/><rect id="rect36785" width="28" height="18" x="3" y="3" fill="#eee" rx="2.5" ry="2.5"/><path id="Rectangle_2_copy" fill="none" fill-rule="evenodd" stroke="#000" stroke-width="1" d="M5.5 3h23A2.5 2.5 0 0131 5.5v13a2.5 2.5 0 01-2.5 2.5h-23A2.5 2.5 0 013 18.5v-13A2.5 2.5 0 015.5 3z" data-name="Rectangle 2 copy" opacity=".1"/><path id="path36788" fill="url(#linear-gradient-2)" fill-rule="evenodd" d="M11 8a4 4 0 11-4 4 4 4 0 014-4zm12 0a4 4 0 11-4 4 4 4 0 014-4z"/></svg>