<svg xmlns="http://www.w3.org/2000/svg" id="Layer_1" width="35.4" height="35.4" x="0" y="0" version="1.1" xml:space="preserve"><style id="style23771" type="text/css"/><path id="path23773" fill="#a70014" fill-opacity="1" d="M32.33 35.4h-22.1c-2.1 0-3.9-.7-5.2-2-1.4-1.3-2.1-3.1-2.1-5.2 0-.6.1-1.1.2-1.7L7.73 0c2.1 0 3.9.7 5.2 2 1.4 1.3 2.1 3 2.1 5.1 0 .6 0 1.1-.1 1.7l-2.4 13.1c-.2 1.2 0 2.3.7 3.3s1.6 1.5 2.8 1.5h9.1c2.2 0 3.9.7 5.3 2s2 3 2 5.2c.1.4 0 1-.1 1.5z"/><linearGradient id="SVGID_1_" x1="236.48" x2="247.167" y1="38.595" y2="-1.289" gradientUnits="userSpaceOnUse"><stop id="stop23785" offset="0" stop-color="#cb8e35"/><stop id="stop23787" offset=".525" stop-color="#fbe99b"/><stop id="stop23789" offset="1" stop-color="#c27f2a"/></linearGradient><linearGradient id="SVGID_2_" x1="273.637" x2="284.348" y1="38.461" y2="-1.512" gradientUnits="userSpaceOnUse"><stop id="stop23794" offset="0" stop-color="#cb8e35"/><stop id="stop23796" offset=".525" stop-color="#fbe99b"/><stop id="stop23798" offset="1" stop-color="#c27f2a"/></linearGradient></svg>